<svg xmlns="http://www.w3.org/2000/svg" viewBox="0 0 841.9 595.3">
  <g fill="#61DAFB">
    <path d="M666.3 296.5c0-32.5-5-63.5-14.1-92.6h94.7V115h-123c-11.5-24.4-25.1-46.7-40.3-66.5l85.2-85.2L618.3 0l-80.7 80.7c-23.8-13.7-48.5-25.3-73.8-34.6V0h-70.7v46.1c-25.3 9.3-50 20.9-73.8 34.6L239.1 0 188 51.1l85.2 85.2c-15.2 19.8-28.8 42.1-40.3 66.5H110v88.9h94.7c-9.1 29.1-14.1 60.1-14.1 92.6s5 63.5 14.1 92.6H110v88.9h123c11.5 24.4 25.1 46.7 40.3 66.5l-85.2 85.2L239.1 595.3l80.7-80.7c23.8 13.7 48.5 25.3 73.8 34.6v46.1h70.7v-46.1c25.3-9.3 50-20.9 73.8-34.6l80.7 80.7 51.1-51.1-85.2-85.2c15.2-19.8 28.8-42.1 40.3-66.5h123v-88.9h-94.7c9.1-29.1 14.1-60.1 14.1-92.6z"></path>
    <circle cx="420.9" cy="296.5" r="45.7"></circle>
  </g>
</svg>
